<?xml version="1.0" encoding="utf-8"?>
<svg viewBox="41.024 53.752 36.744 36.744" width="36.744" height="36.744" xmlns="http://www.w3.org/2000/svg">
  <defs>
    <linearGradient gradientUnits="userSpaceOnUse" x1="177.605" y1="654.19" x2="177.605" y2="666.44" id="gradient-24" gradientTransform="matrix(0.873434, -0.486942, 0.303609, 0.544586, -175.209491, 388.315726)">
      <stop offset="0" style="stop-color: rgb(60, 155, 206);"/>
      <stop offset="1" style="stop-color: rgb(20, 107, 154);"/>
    </linearGradient>
    <linearGradient gradientUnits="userSpaceOnUse" x1="176.505" y1="674.857" x2="176.505" y2="683.766" id="gradient-25" gradientTransform="matrix(0.081527, -0.996671, 1.252401, 0.102446, -681.402852, 784.055497)">
      <stop offset="0" style="stop-color: rgb(60, 155, 206);"/>
      <stop offset="1" style="stop-color: rgb(20, 107, 154);"/>
    </linearGradient>
    <linearGradient gradientUnits="userSpaceOnUse" x1="177.605" y1="654.19" x2="177.605" y2="666.44" id="gradient-26" gradientTransform="matrix(0.816539, -0.57729, 0.288428, 0.407962, -154.801824, 495.413677)">
      <stop offset="0" style="stop-color: rgb(60, 154, 206);"/>
      <stop offset="1" style="stop-color: rgb(20, 107, 154);"/>
    </linearGradient>
    <linearGradient gradientUnits="userSpaceOnUse" x1="176.505" y1="674.857" x2="176.505" y2="683.766" id="gradient-27" gradientTransform="matrix(0.187171, -0.982327, 1.085414, 0.206812, -586.613416, 711.649048)">
      <stop offset="0" style="stop-color: rgb(60, 155, 206);"/>
      <stop offset="1" style="stop-color: rgb(20, 107, 154);"/>
    </linearGradient>
    <linearGradient gradientUnits="userSpaceOnUse" x1="177.605" y1="654.19" x2="177.605" y2="666.44" id="gradient-28" gradientTransform="matrix(0.92418, -0.381958, 0.212526, 0.514225, -124.450825, 389.531678)">
      <stop offset="0" style="stop-color: rgb(60, 155, 206);"/>
      <stop offset="1" style="stop-color: rgb(20, 107, 154);"/>
    </linearGradient>
    <linearGradient gradientUnits="userSpaceOnUse" x1="176.505" y1="674.857" x2="176.505" y2="683.766" id="gradient-29" gradientTransform="matrix(-0.180876, 0.983506, -0.918427, -0.168907, 840.139121, 620.086687)">
      <stop offset="0" style="stop-color: rgb(20, 107, 154);"/>
      <stop offset="1" style="stop-color: rgb(80, 161, 204);"/>
    </linearGradient>
    <linearGradient gradientUnits="userSpaceOnUse" x1="177.605" y1="654.19" x2="177.605" y2="666.44" id="gradient-30" gradientTransform="matrix(0.897616, -0.44078, 0.36433, 0.741932, -219.971635, 248.969733)">
      <stop offset="0" style="stop-color: rgb(60, 155, 206);"/>
      <stop offset="1" style="stop-color: rgb(20, 107, 154);"/>
    </linearGradient>
    <linearGradient gradientUnits="userSpaceOnUse" x1="176.505" y1="674.857" x2="176.505" y2="683.766" id="gradient-31" gradientTransform="matrix(0.106804, 0.99428, -1.148034, 0.12332, 946.917476, 421.531501)">
      <stop offset="0" style="stop-color: rgb(20, 107, 154);"/>
      <stop offset="1" style="stop-color: rgb(80, 161, 204);"/>
    </linearGradient>
  </defs>
  <g id="g-45" transform="matrix(0.434171, 0, 0, 0.434171, -25.825128, -223.144564)">
    <g id="g-46">
      <g id="g-47">
        <path id="path-48" style="fill-rule: evenodd; stroke: rgb(0, 0, 0); fill: rgb(247, 247, 247);" d="m153.97 679.31l22.55 5.38v-10.76l-22.55 5.38z"/>
      </g>
      <g id="g-48" transform="matrix(0, 1, -1, 0, 876.3599853515625, 483.7900085449219)">
        <path style="fill-rule: evenodd; stroke: rgb(0, 0, 0); fill: rgb(247, 247, 247);" d="m153.97 679.31l22.55 5.38v-10.76l-22.55 5.38z"/>
      </g>
      <g id="g-49" transform="matrix(-1, 0, 0, -1, 392.57000732421875, 1360.199951171875)">
        <path style="fill-rule: evenodd; stroke: rgb(0, 0, 0); fill: rgb(247, 247, 247);" d="m153.97 679.31l22.55 5.38v-10.76l-22.55 5.38z"/>
      </g>
      <g id="g-50" transform="matrix(0, -1, 1, 0, -483.7900085449219, 876.3599853515625)">
        <path style="fill-rule: evenodd; stroke: rgb(0, 0, 0); fill: rgb(247, 247, 247);" d="m153.97 679.31l22.55 5.38v-10.76l-22.55 5.38z"/>
      </g>
    </g>
  </g>
  <g id="g-51" transform="matrix(0.434171, 0, 0, 0.434171, -25.825128, -223.144564)">
    <path id="path-49" style="color:#000000;fill-rule:evenodd;fill:#ffffff" d="m220.38 678.2a23.559 23.559 0 1 1 -47.12 0 23.559 23.559 0 1 1 47.12 0z" transform="translate(-.53369 1.8752)"/>
    <g id="g-52">
      <path id="path-50" style="stroke-width: 1px; fill: rgb(60, 154, 206); stroke: rgb(60, 154, 206);" d="M 174.35 689.16 L 216.164 671.842 L 218.22 670.99"/>
      <path id="path-51" style="stroke-width: 1px; fill: rgb(60, 154, 206); stroke: rgb(60, 154, 206);" d="m174.35 689.16l43.87-18.17" transform="matrix(0.7071100473403931, -0.7071100473403931, 0.7071100473403931, 0.7071100473403931, -423.3999938964844, 337.9800109863281)"/>
      <path id="path-52" style="stroke-width: 1px; fill: rgb(60, 154, 206); stroke: rgb(60, 154, 206);" d="m174.35 689.16l43.87-18.17" transform="matrix(0, -1.0000093223935522, 1.0000093223935522, 0, -483.8013220559005, 876.3594622830424)"/>
      <path id="path-53" style="stroke-width: 1px; fill: rgb(60, 154, 206); stroke: rgb(60, 154, 206);" d="m174.35 689.16l43.87-18.17" transform="matrix(-0.7071166222791305, -0.7071166222791305, 0.7071166222791305, -0.7071166222791305, -145.81821335462155, 1299.7633550485043)"/>
    </g>
    <g id="g-53" transform="matrix(.83147 -.55557 .55557 .83147 -344.75 223.66)">
      <path id="path-54" style="stroke-width: 1px; fill: none; stroke: rgba(23, 23, 23, 0.19);" d="m174.35 689.16l43.87-18.17"/>
      <path id="path-55" style="stroke-width: 1px; fill: none; stroke: rgba(23, 23, 23, 0.19);" d="m174.35 689.16l43.87-18.17" transform="matrix(0.7071100473403931, -0.7071100473403931, 0.7071100473403931, 0.7071100473403931, -423.3999938964844, 337.9800109863281)"/>
      <path id="path-56" style="stroke-width: 1px; fill: none; stroke: rgba(23, 23, 23, 0.19);" d="m174.35 689.16l43.87-18.17" transform="matrix(0, -1.0000093223935522, 1.0000093223935522, 0, -483.8013220559005, 876.3594622830424)"/>
      <path id="path-57" style="stroke-width: 1px; fill: none; stroke: rgba(23, 23, 23, 0.19);" d="m174.35 689.16l43.87-18.17" transform="matrix(-0.7071166222791305, -0.7071166222791305, 0.7071166222791305, -0.7071166222791305, -145.81821335462155, 1299.7633550485043)"/>
    </g>
    <g id="g-54" transform="matrix(0.5555730031263941, -0.8314670083577127, 0.8314670083577127, 0.5555730031263941, -478.22742495585317, 465.44395041395364)">
      <path style="stroke-width: 1px; fill: none; stroke: rgba(23, 23, 23, 0.19);" d="m174.35 689.16l43.87-18.17"/>
      <path style="stroke-width: 1px; fill: none; stroke: rgba(23, 23, 23, 0.19);" d="m174.35 689.16l43.87-18.17" transform="matrix(0.7071100473403931, -0.7071100473403931, 0.7071100473403931, 0.7071100473403931, -423.3999938964844, 337.9800109863281)"/>
      <path style="stroke-width: 1px; fill: none; stroke: rgba(23, 23, 23, 0.19);" d="m174.35 689.16l43.87-18.17" transform="matrix(0, -1.0000093223935522, 1.0000093223935522, 0, -483.8013220559005, 876.3594622830424)"/>
      <path style="stroke-width: 1px; fill: none; stroke: rgba(23, 23, 23, 0.19);" d="m174.35 689.16l43.87-18.17" transform="matrix(-0.7071166222791305, -0.7071166222791305, 0.7071166222791305, -0.7071166222791305, -145.81821335462155, 1299.7633550485043)"/>
    </g>
    <path id="path-58" style="color:#000000;stroke:#000000;stroke-linecap:round;fill:none" d="m220.38 678.2a23.559 23.559 0 1 1 -47.12 0 23.559 23.559 0 1 1 47.12 0z" transform="translate(-.53369 1.8752)"/>
    <path id="path-59" style="color:#000000;stroke:#000000;stroke-linecap:round;fill:none" d="m211.47 678.2a14.655 14.655 0 1 1 -29.31 0 14.655 14.655 0 1 1 29.31 0z" transform="translate(-.53369 1.8752)"/>
  </g>
  <g id="g-55" transform="matrix(0.434171, 0, 0, 0.434171, -25.825128, -223.144564)">
    <g id="g-56">
      <g id="g-57" transform="translate(.0000072015 -.0000097440)">
        <path id="path-60" style="fill-rule: evenodd; stroke: rgb(0, 0, 0); stroke-width: 1px; fill: rgb(247, 247, 247);" d="m180.28 662.99l16.79 11.55-5.25 5.24-11.54-16.79z"/>
        <path id="path-61" style="stroke: rgb(0, 0, 0); stroke-width: 1px; fill: rgb(251, 0, 0);" d="m180.54 663.26l17.58 17.57"/>
        <path id="path-62" style="fill-rule: evenodd; stroke: rgb(0, 0, 0); stroke-width: 1px; fill: url(#gradient-24);" d="m171.48 654.19l8.16 12.25 3.53-0.56 0.56-3.52-12.25-8.17z"/>
        <path id="path-63" style="fill-rule: evenodd; stroke: rgb(0, 0, 0); stroke-width: 1px; fill: url(#gradient-25);" d="m193.29 675.27c5.2-2.96 5.2 11.05 0 8.08-5.19-2.96-37.47-4.08-37.47-4.04s32.28-1.07 37.47-4.04z"/>
      </g>
      <g id="g-58" transform="matrix(0, 1, -1, 0, 876.3599950955631, 483.7900157464228)">
        <path style="fill-rule: evenodd; stroke: rgb(0, 0, 0); stroke-width: 1px; fill: rgb(247, 247, 247);" d="m180.28 662.99l16.79 11.55-5.25 5.24-11.54-16.79z"/>
        <path style="stroke: rgb(0, 0, 0); stroke-width: 1px; fill: rgb(251, 0, 0);" d="m180.54 663.26l17.58 17.57"/>
        <path style="fill-rule: evenodd; stroke: rgb(0, 0, 0); stroke-width: 1px; paint-order: fill; fill: url(#gradient-26);" d="m171.48 654.19l8.16 12.25 3.53-0.56 0.56-3.52-12.25-8.17z"/>
        <path style="fill-rule: evenodd; stroke: rgb(0, 0, 0); stroke-width: 1px; fill: url(#gradient-27);" d="m193.29 675.27c5.2-2.96 5.2 11.05 0 8.08-5.19-2.96-37.47-4.08-37.47-4.04s32.28-1.07 37.47-4.04z"/>
      </g>
      <g id="g-59" transform="matrix(-1, 0, 0, -1, 392.57000012271783, 1360.1999609158756)">
        <path style="fill-rule: evenodd; stroke: rgb(0, 0, 0); stroke-width: 1px; fill: rgb(247, 247, 247);" d="m180.28 662.99l16.79 11.55-5.25 5.24-11.54-16.79z"/>
        <path style="stroke:#000000;stroke-width:1px;fill:none" d="m180.54 663.26l17.58 17.57"/>
        <path style="fill-rule: evenodd; stroke: rgb(0, 0, 0); stroke-width: 1px; fill: url(#gradient-28);" d="m171.48 654.19l8.16 12.25 3.53-0.56 0.56-3.52-12.25-8.17z"/>
        <path style="fill-rule: evenodd; stroke: rgb(0, 0, 0); stroke-width: 1px; fill: url(#gradient-29);" d="m193.29 675.27c5.2-2.96 5.2 11.05 0 8.08-5.19-2.96-37.47-4.08-37.47-4.04s32.28-1.07 37.47-4.04z"/>
      </g>
      <g id="g-60" transform="matrix(0, -1, 1, 0, -483.7900182889225, 876.3599781500616)">
        <path style="fill-rule: evenodd; stroke: rgb(0, 0, 0); stroke-width: 1px; fill: rgb(247, 247, 247);" d="m180.28 662.99l16.79 11.55-5.25 5.24-11.54-16.79z"/>
        <path style="stroke:#000000;stroke-width:1px;fill:none" d="m180.54 663.26l17.58 17.57"/>
        <path style="fill-rule: evenodd; stroke: rgb(0, 0, 0); stroke-width: 1px; fill: url(#gradient-30);" d="m171.48 654.19l8.16 12.25 3.53-0.56 0.56-3.52-12.25-8.17z"/>
        <path style="fill-rule: evenodd; stroke: rgb(0, 0, 0); stroke-width: 1px; fill: url(#gradient-31);" d="m193.29 675.27c5.2-2.96 5.2 11.05 0 8.08-5.19-2.96-37.47-4.08-37.47-4.04s32.28-1.07 37.47-4.04z"/>
      </g>
    </g>
  </g>
  <g id="g-62" transform="matrix(0.434171, 0, 0, 0.434171, -25.825128, -223.144564)">
    <path id="path-64" style="fill-rule: evenodd; color: rgb(0, 0, 0); stroke: rgb(46, 52, 54); stroke-linecap: round; stroke-width: 0.5; fill: rgb(237, 213, 0);" transform="translate(-.34819 .57671)" d="m200.26 685.78l-1.61-1.03-0.51 1.85-1.21-1.49-1.05 1.61-0.7-1.79-1.5 1.2-0.11-1.91-1.79 0.67 0.48-1.85-1.91 0.09 1.03-1.62-1.84-0.5 1.48-1.22-1.6-1.05 1.78-0.7-1.19-1.49 1.91-0.11-0.68-1.79 1.86 0.48-0.09-1.91 1.61 1.03 0.51-1.85 1.21 1.48 1.05-1.6 0.7 1.79 1.49-1.2 0.12 1.91 1.79-0.67-0.49 1.85 1.92-0.09-1.04 1.61 1.85 0.51-1.48 1.22 1.6 1.05-1.78 0.7 1.19 1.49-1.91 0.11 0.68 1.79-1.86-0.48 0.09 1.91z"/>
    <path id="path-65" style="fill-rule: evenodd; color: rgb(0, 0, 0); stroke: rgb(46, 52, 54); stroke-linecap: round; stroke-width: 1.0292; fill: rgb(60, 154, 206);" d="m200.26 685.78l-1.61-1.03-0.51 1.85-1.21-1.49-1.05 1.61-0.7-1.79-1.5 1.2-0.11-1.91-1.79 0.67 0.48-1.85-1.91 0.09 1.03-1.62-1.84-0.5 1.48-1.22-1.6-1.05 1.78-0.7-1.19-1.49 1.91-0.11-0.68-1.79 1.86 0.48-0.09-1.91 1.61 1.03 0.51-1.85 1.21 1.48 1.05-1.6 0.7 1.79 1.49-1.2 0.12 1.91 1.79-0.67-0.49 1.85 1.92-0.09-1.04 1.61 1.85 0.51-1.48 1.22 1.6 1.05-1.78 0.7 1.19 1.49-1.91 0.11 0.68 1.79-1.86-0.48 0.09 1.91z" transform="matrix(.48582 0 0 .48582 100.76 349.96)"/>
    <rect id="rect-3" style="fill-rule:evenodd;color:#000000;stroke:#2e3436;stroke-linecap:round;stroke-width:.5;fill:#edd400" height="2.226" width="2.226" y="678.96" x="195.17"/>
  </g>
</svg>