<svg
  id="Capa_1"
  fill="#171717"
  height="512"
  viewBox="0 0 512 512"
  width="512"
  xmlns="http://www.w3.org/2000/svg"
><g><path
      d="m454.688 222.035c.443-.7 1.283-1.75 1.883-2.5 2.409-3.013 5.409-6.761 5.409-11.843s-3-8.831-5.41-11.845c-.599-.749-1.439-1.798-1.882-2.498.342-.772 1.047-1.964 1.55-2.814 1.949-3.299 4.377-7.406 3.673-12.385-.711-5.033-4.209-8.318-7.019-10.957-.699-.656-1.678-1.576-2.216-2.205.231-.812.758-2.092 1.134-3.003 1.465-3.549 3.287-7.967 1.882-12.802-1.419-4.88-5.348-7.625-8.506-9.831-.784-.548-1.881-1.315-2.503-1.86.114-.837.452-2.174.694-3.126.946-3.727 2.122-8.365.041-12.952-2.099-4.627-6.378-6.779-9.817-8.507-.851-.427-2.04-1.026-2.733-1.475-.006-.844.14-2.207.244-3.18.408-3.827.916-8.59-1.797-12.84-2.732-4.28-7.273-5.794-10.921-7.011-.899-.3-2.156-.719-2.906-1.063-.122-.834-.17-2.195-.203-3.169-.135-3.85-.303-8.64-3.592-12.466-3.311-3.85-8.019-4.7-11.802-5.384-.928-.167-2.224-.402-3.016-.634-.236-.807-.472-2.138-.641-3.089-.674-3.796-1.513-8.521-5.315-11.847-3.82-3.341-8.601-3.512-12.444-3.649-.939-.034-2.25-.08-3.067-.196-.344-.765-.762-2.037-1.06-2.947-1.203-3.668-2.7-8.232-6.941-10.986-4.256-2.766-9.014-2.249-12.836-1.834-.932.102-2.233.242-3.059.245-.446-.707-1.033-1.895-1.454-2.747-1.712-3.464-3.841-7.774-8.441-9.896-4.605-2.125-9.239-.93-12.963.032-.908.234-2.174.561-2.993.683-.539-.634-1.282-1.716-1.815-2.492-2.189-3.186-4.914-7.152-9.785-8.593-4.858-1.436-9.267.417-12.811 1.904-.867.364-2.075.872-2.87 1.111-.62-.549-1.501-1.503-2.134-2.188-2.624-2.844-5.89-6.381-10.928-7.106-5-.713-9.096 1.744-12.388 3.724-.809.487-1.937 1.165-2.694 1.518-.687-.454-1.684-1.265-2.402-1.849-3.002-2.444-6.737-5.483-11.834-5.483s-8.832 3.04-11.833 5.482c-.717.583-1.714 1.395-2.401 1.849-.757-.353-1.885-1.031-2.695-1.518-3.292-1.979-7.387-4.444-12.389-3.724-5.037.725-8.302 4.262-10.926 7.105-.633.686-1.514 1.641-2.134 2.189-.796-.241-2.005-.748-2.871-1.111-3.545-1.488-7.956-3.336-12.81-1.904-4.871 1.44-7.596 5.407-9.785 8.594-.533.776-1.276 1.858-1.815 2.491-.819-.122-2.086-.449-2.994-.684-3.722-.959-8.358-2.153-12.96-.033-4.602 2.123-6.731 6.434-8.441 9.897-.421.852-1.009 2.04-1.455 2.747-.826-.003-2.126-.144-3.059-.245-3.823-.416-8.581-.932-12.835 1.833-4.242 2.755-5.739 7.319-6.941 10.986-.299.911-.716 2.183-1.061 2.948-.817.115-2.128.163-3.067.196-3.842.136-8.623.307-12.443 3.648-3.801 3.325-4.641 8.05-5.315 11.846-.169.952-.406 2.282-.642 3.09-.792.232-2.088.467-3.016.634-3.783.684-8.493 1.535-11.803 5.384-3.288 3.825-3.456 8.616-3.591 12.466-.034.972-.081 2.333-.203 3.168-.751.344-2.008.764-2.906 1.063-3.648 1.217-8.19 2.732-10.923 7.013-2.711 4.248-2.204 9.011-1.795 12.838.104.973.249 2.337.244 3.181-.694.449-1.884 1.047-2.735 1.475-3.438 1.728-7.718 3.879-9.815 8.505-2.082 4.59-.905 9.228.04 12.955.241.954.58 2.289.693 3.126-.621.545-1.718 1.312-2.503 1.86-3.157 2.206-7.087 4.952-8.505 9.832-1.405 4.834.418 9.251 1.881 12.8.376.912.904 2.192 1.134 3.004-.537.63-1.517 1.55-2.216 2.206-2.81 2.638-6.308 5.923-7.019 10.957-.704 4.979 1.723 9.086 3.673 12.385.502.85 1.207 2.042 1.55 2.814-.443.7-1.283 1.749-1.882 2.498-2.41 3.014-5.41 6.762-5.41 11.845 0 5.081 3 8.83 5.409 11.843.6.749 1.44 1.8 1.883 2.5-.343.771-1.047 1.963-1.55 2.813-1.949 3.3-4.377 7.406-3.673 12.385.711 5.033 4.209 8.318 7.019 10.956.699.656 1.678 1.575 2.216 2.205-.23.812-.758 2.092-1.134 3.003-1.465 3.55-3.287 7.969-1.881 12.8 1.417 4.881 5.347 7.627 8.505 9.834.784.548 1.881 1.315 2.503 1.86-.114.837-.452 2.174-.694 3.127-.946 3.726-2.121 8.364-.04 12.952 2.098 4.626 6.377 6.777 9.815 8.506.851.427 2.041 1.026 2.735 1.475.005.843-.14 2.207-.245 3.18-.408 3.827-.916 8.59 1.796 12.838 2.733 4.281 7.274 5.796 10.922 7.013.899.3 2.156.719 2.906 1.063.122.834.17 2.195.203 3.168.135 3.85.303 8.641 3.593 12.467 3.31 3.85 8.017 4.699 11.8 5.383.928.168 2.225.402 3.016.635.236.807.472 2.137.641 3.089.675 3.796 1.514 8.521 5.315 11.846 3.821 3.342 8.602 3.513 12.444 3.649.289.01.614.023.948.037l-52.586 92.765c-2.363 4.168-2.245 9.276.308 13.33 2.554 4.054 7.09 6.374 11.887 6.04l36.987-2.543c2.444-.165 4.802.774 6.457 2.584l25.023 27.355c4.079 2.874 5.275 4.983 12.772 3.827 4.644-1.175 8.254-4.79 9.42-9.438l24.149-96.364c.643-.253 1.265-.513 1.86-.763.867-.364 2.076-.872 2.871-1.111.62.549 1.501 1.503 2.134 2.188 2.624 2.844 5.89 6.381 10.926 7.105 4.994.718 9.098-1.744 12.39-3.724.809-.486 1.937-1.164 2.693-1.517.688.454 1.685 1.265 2.403 1.85 3.001 2.442 6.735 5.481 11.832 5.481s8.831-3.039 11.832-5.481c.718-.584 1.716-1.396 2.403-1.85.756.353 1.884 1.031 2.694 1.518 3.292 1.979 7.394 4.438 12.388 3.723 5.037-.724 8.303-4.261 10.927-7.105.633-.685 1.514-1.64 2.134-2.188.796.24 2.004.747 2.87 1.11 2.375.997 5.142 2.152 8.168 2.377l23.745 94.752c1.165 4.647 4.774 8.263 9.419 9.437 3.48.79 8.612.346 12.772-3.827l25.022-27.355c1.657-1.81 4.018-2.749 6.458-2.584l36.988 2.543c4.765.325 9.335-1.986 11.886-6.04 2.553-4.054 2.671-9.162.308-13.331l-8.928-15.749c-2.066-3.642-6.69-4.922-10.334-2.856-3.641 2.065-4.921 6.691-2.856 10.334l6.939 12.24-32.963-2.266c-7.08-.494-13.893 2.238-18.685 7.476l-22.301 24.379-23.827-95.085c.27-.384.532-.764.785-1.133.533-.777 1.276-1.859 1.815-2.492.819.122 2.086.449 2.994.684 3.723.96 8.358 2.155 12.96.033 4.602-2.123 6.731-6.434 8.441-9.897.421-.852 1.009-2.041 1.455-2.747.827.002 2.127.143 3.06.245 3.821.413 8.58.929 12.834-1.833 1.819-1.181 3.131-2.696 4.134-4.329l25.845 45.593c1.396 2.462 3.96 3.844 6.602 3.844 1.266 0 2.551-.318 3.731-.987 3.642-2.064 4.922-6.69 2.857-10.333l-27.363-48.27c2.638-.385 5.355-1.239 7.707-3.296 3.802-3.325 4.641-8.051 5.316-11.847.169-.952.405-2.281.641-3.089.792-.232 2.088-.467 3.016-.634 3.783-.684 8.493-1.535 11.803-5.385 3.288-3.826 3.456-8.616 3.591-12.466.034-.972.081-2.333.203-3.168.751-.344 2.008-.763 2.907-1.063 3.648-1.217 8.189-2.731 10.921-7.011 2.713-4.25 2.205-9.013 1.797-12.841-.104-.973-.25-2.336-.244-3.18.693-.449 1.883-1.047 2.734-1.475 3.439-1.727 7.718-3.878 9.817-8.506 2.08-4.589.903-9.227-.041-12.953-.242-.953-.581-2.29-.694-3.126.622-.545 1.719-1.312 2.502-1.86 3.158-2.207 7.088-4.953 8.506-9.832 1.406-4.835-.418-9.253-1.881-12.803-.376-.911-.903-2.189-1.134-3.002.538-.63 1.517-1.549 2.216-2.205 2.811-2.639 6.308-5.924 7.019-10.956.704-4.98-1.723-9.086-3.673-12.385-.502-.851-1.207-2.044-1.549-2.815zm-283.672 272.606-22.302-24.379c-4.793-5.238-11.604-7.969-18.684-7.476l-32.963 2.266 47.04-82.982c.161.116.319.233.489.344 4.254 2.763 9.01 2.249 12.834 1.832.933-.101 2.233-.242 3.06-.245.446.707 1.033 1.895 1.454 2.748 1.712 3.464 3.841 7.774 8.443 9.897 4.605 2.124 9.237.927 12.96-.033.908-.235 2.175-.562 2.994-.684.539.634 1.282 1.717 1.815 2.492 1.423 2.072 3.077 4.47 5.396 6.292zm273.716-284.577c-2.234 2.792-5.014 6.267-5.336 10.88-.326 4.657 1.955 8.517 3.789 11.619.443.75 1.046 1.771 1.411 2.521-.563.625-1.441 1.45-2.085 2.054-2.606 2.448-5.849 5.494-6.823 10.023-.976 4.551.731 8.691 2.104 12.019.334.808.788 1.911 1.043 2.709-.644.534-1.62 1.216-2.336 1.717-2.934 2.049-6.584 4.6-8.194 8.953-1.613 4.36-.511 8.7.373 12.187.215.85.509 2.007.648 2.835-.71.432-1.762.961-2.535 1.349-3.201 1.609-7.184 3.611-9.402 7.699-2.214 4.082-1.739 8.534-1.358 12.111.094.872.22 2.057.241 2.898-.761.324-1.867.692-2.68.963-3.401 1.135-7.634 2.547-10.413 6.285-2.771 3.726-2.927 8.202-3.053 11.798-.031.873-.072 2.06-.169 2.895-.796.209-1.932.415-2.768.566-3.532.639-7.926 1.432-11.21 4.745-3.267 3.296-4.05 7.704-4.68 11.247-.152.856-.358 2.019-.571 2.832-.814.092-1.957.133-2.8.163-3.588.127-8.055.286-11.778 3.102-3.702 2.799-5.096 7.053-6.217 10.47-.269.821-.635 1.936-.957 2.71-.817-.027-1.944-.149-2.776-.24-3.574-.389-8.021-.869-12.109 1.388-4.062 2.241-6.042 6.251-7.634 9.474-.38.77-.895 1.813-1.323 2.532-.802-.145-1.892-.425-2.698-.634-3.482-.898-7.818-2.019-12.192-.371-4.339 1.633-6.869 5.315-8.902 8.275-.484.705-1.139 1.658-1.662 2.308-.773-.26-1.804-.693-2.569-1.014-3.32-1.393-7.449-3.127-12.025-2.13-4.528.989-7.555 4.269-9.988 6.905-.577.627-1.36 1.474-1.969 2.041-.726-.369-1.683-.944-2.392-1.37-3.093-1.86-6.945-4.172-11.615-3.842-4.624.329-8.084 3.145-10.864 5.407-.668.544-1.576 1.283-2.262 1.756-.686-.473-1.594-1.212-2.262-1.756-2.78-2.262-6.239-5.078-10.864-5.407-.305-.022-.606-.032-.905-.032-4.266 0-7.818 2.135-10.709 3.873-.709.426-1.666 1.001-2.393 1.37-.609-.568-1.392-1.414-1.969-2.041-2.433-2.635-5.46-5.916-9.989-6.905-4.568-.999-8.704.736-12.025 2.13-.765.321-1.796.754-2.569 1.014-.523-.65-1.179-1.603-1.662-2.308-2.033-2.959-4.563-6.643-8.901-8.276-4.378-1.647-8.711-.527-12.193.371-.806.208-1.895.489-2.699.634-.426-.719-.943-1.763-1.323-2.533-1.592-3.223-3.573-7.232-7.632-9.472-4.089-2.259-8.537-1.777-12.111-1.389-.832.09-1.958.212-2.776.239-.323-.774-.688-1.887-.957-2.709-.273-.835-.565-1.719-.9-2.62-.005-.014-.01-.028-.015-.042-1.039-2.776-2.517-5.704-5.3-7.808-3.724-2.817-8.191-2.976-11.779-3.103-.843-.03-1.986-.071-2.8-.163-.212-.813-.419-1.976-.571-2.832-.63-3.543-1.413-7.951-4.68-11.247-3.284-3.313-7.678-4.107-11.21-4.745-.836-.151-1.971-.356-2.768-.566-.097-.836-.138-2.023-.169-2.896-.126-3.596-.283-8.071-3.052-11.797-2.779-3.739-7.011-5.151-10.412-6.286-.813-.271-1.92-.64-2.681-.963.022-.841.148-2.026.241-2.897.382-3.578.857-8.031-1.359-12.113-2.217-4.086-6.199-6.088-9.399-7.697-.774-.388-1.826-.917-2.536-1.349.139-.828.432-1.985.649-2.834.884-3.488 1.985-7.829.372-12.189-1.61-4.351-5.26-6.903-8.193-8.952-.717-.501-1.693-1.184-2.336-1.717.256-.798.71-1.899 1.043-2.708 1.373-3.326 3.081-7.467 2.104-12.021-.972-4.528-4.217-7.575-6.824-10.023-.644-.604-1.521-1.427-2.084-2.053.365-.749.969-1.771 1.412-2.521 1.833-3.101 4.114-6.962 3.788-11.617-.322-4.615-3.102-8.089-5.336-10.881-.563-.704-1.334-1.667-1.801-2.372.468-.706 1.24-1.67 1.802-2.373 2.234-2.792 5.013-6.267 5.335-10.88.326-4.657-1.955-8.517-3.789-11.619-.443-.75-1.046-1.771-1.412-2.521.563-.625 1.44-1.449 2.084-2.053 2.607-2.448 5.851-5.495 6.824-10.023.977-4.552-.731-8.694-2.103-12.022-.334-.808-.789-1.91-1.043-2.708.643-.534 1.619-1.216 2.334-1.717 2.934-2.049 6.585-4.601 8.195-8.954 1.613-4.359.511-8.699-.373-12.186-.215-.85-.508-2.007-.649-2.835.71-.432 1.763-.961 2.537-1.35 3.2-1.609 7.182-3.61 9.399-7.696 2.216-4.084 1.741-8.537 1.359-12.115-.093-.871-.219-2.056-.241-2.897.761-.323 1.868-.692 2.681-.963 3.4-1.134 7.632-2.546 10.413-6.285 2.77-3.726 2.926-8.202 3.052-11.798.031-.873.072-2.059.169-2.894.796-.209 1.932-.415 2.768-.566 3.532-.639 7.926-1.432 11.21-4.745 3.267-3.296 4.051-7.704 4.68-11.247.152-.856.359-2.019.571-2.832.815-.092 1.957-.133 2.8-.163 3.589-.128 8.055-.287 11.779-3.103 3.701-2.798 5.095-7.052 6.216-10.469.269-.821.635-1.936.957-2.71.817.027 1.945.149 2.777.239 3.571.388 8.019.871 12.108-1.387 4.062-2.241 6.042-6.251 7.634-9.474.38-.77.896-1.813 1.323-2.532.803.145 1.892.425 2.698.634 3.483.899 7.818 2.019 12.193.371 4.338-1.633 6.868-5.316 8.901-8.276.484-.705 1.139-1.658 1.662-2.308.772.26 1.803.693 2.567 1.014 3.321 1.395 7.456 3.137 12.025 2.13 4.53-.988 7.558-4.269 9.991-6.905.577-.626 1.359-1.473 1.968-2.04.726.368 1.683.944 2.393 1.37 3.092 1.86 6.944 4.179 11.615 3.842 4.623-.33 8.083-3.145 10.863-5.407.668-.544 1.576-1.283 2.262-1.756.687.473 1.594 1.212 2.263 1.756 2.78 2.262 6.239 5.077 10.863 5.407 4.67.338 8.522-1.983 11.615-3.843.709-.425 1.665-1.001 2.392-1.369.61.568 1.392 1.414 1.97 2.04 2.433 2.636 5.46 5.917 9.989 6.906 4.57 1.001 8.705-.736 12.025-2.131.764-.321 1.796-.753 2.568-1.014.523.649 1.179 1.604 1.662 2.308 2.033 2.959 4.563 6.643 8.903 8.277 4.375 1.645 8.709.527 12.191-.371.805-.208 1.895-.49 2.698-.635.427.72.944 1.764 1.324 2.534 1.592 3.223 3.573 7.232 7.634 9.473 4.087 2.255 8.534 1.774 12.108 1.387.833-.09 1.959-.212 2.777-.239.323.774.688 1.888.957 2.71 1.12 3.418 2.515 7.672 6.216 10.469 3.724 2.816 8.19 2.976 11.779 3.104.843.03 1.986.07 2.8.163.212.812.419 1.975.571 2.831.629 3.543 1.413 7.952 4.68 11.248 3.284 3.313 7.678 4.107 11.21 4.745.836.151 1.972.356 2.768.566.097.835.138 2.022.169 2.895.126 3.596.282 8.072 3.052 11.797 2.779 3.739 7.011 5.151 10.413 6.286.813.271 1.919.64 2.68.963-.021.841-.147 2.026-.241 2.898-.381 3.577-.856 8.03 1.359 12.112 2.217 4.086 6.199 6.088 9.399 7.696.774.389 1.827.918 2.537 1.35-.14.828-.433 1.985-.649 2.834-.885 3.487-1.986 7.828-.373 12.189 1.61 4.352 5.26 6.903 8.194 8.952.717.5 1.693 1.183 2.335 1.717-.256.798-.71 1.899-1.043 2.708-1.373 3.327-3.081 7.468-2.104 12.022.973 4.528 4.217 7.573 6.824 10.021.644.604 1.521 1.428 2.084 2.054-.365.749-.968 1.771-1.411 2.521-1.834 3.101-4.115 6.962-3.789 11.618.322 4.614 3.101 8.088 5.335 10.88.563.703 1.335 1.667 1.802 2.373-.466.708-1.237 1.671-1.8 2.375z"
    /><path
      d="m408.666 157.701c-1.283-3.986-5.556-6.17-9.539-4.894-3.986 1.283-6.176 5.554-4.894 9.539 2.465 7.657 7.389 14.563 12.151 21.242 5.952 8.348 11.574 16.233 11.574 24.104s-5.622 15.757-11.574 24.104c-4.762 6.679-9.686 13.585-12.151 21.242-2.574 7.999-2.656 16.739-2.734 25.192-.094 10.075-.183 19.592-4.479 25.547-4.356 6.037-13.339 9.057-22.851 12.255-7.918 2.663-16.106 5.416-22.789 10.321-6.584 4.833-11.643 11.778-16.536 18.494-5.982 8.21-11.633 15.966-18.8 18.313-6.706 2.195-15.578-.62-24.97-3.601-8.118-2.575-16.512-5.239-25.074-5.239s-16.956 2.664-25.074 5.239c-9.393 2.981-18.266 5.797-24.969 3.601-7.167-2.347-12.818-10.103-18.801-18.313-4.893-6.716-9.954-13.661-16.536-18.494-6.682-4.905-14.87-7.659-22.789-10.321-9.511-3.198-18.495-6.22-22.851-12.255-4.297-5.955-4.385-15.471-4.478-25.547-.078-8.452-.159-17.193-2.734-25.192-2.466-7.657-7.389-14.563-12.152-21.242-5.952-8.349-11.574-16.233-11.574-24.104s5.622-15.756 11.574-24.104c4.763-6.679 9.686-13.585 12.152-21.242 2.575-7.999 2.656-16.74 2.734-25.192.094-10.076.182-19.592 4.478-25.547 4.356-6.037 13.339-9.057 22.85-12.255 7.919-2.663 16.107-5.416 22.789-10.322 6.584-4.833 11.645-11.777 16.537-18.493 5.983-8.21 11.633-15.966 18.801-18.313 6.706-2.2 15.576.62 24.969 3.6 8.118 2.576 16.512 5.24 25.074 5.24s16.956-2.664 25.074-5.24c9.393-2.98 18.268-5.796 24.969-3.6 7.168 2.347 12.819 10.103 18.801 18.313 4.894 6.716 9.954 13.661 16.536 18.494 6.682 4.905 14.87 7.658 22.789 10.321 9.511 3.198 18.495 6.219 22.851 12.255 2.524 3.499 3.838 8.524 4.259 16.295.228 4.179 3.791 7.367 7.981 7.158 4.18-.227 7.385-3.8 7.158-7.981-.397-7.298-1.563-16.661-7.104-24.342-7.204-9.987-18.953-13.937-30.314-17.757-7.132-2.399-13.868-4.664-18.648-8.172-4.687-3.441-8.849-9.152-13.254-15.2-6.804-9.339-14.516-19.923-26.337-23.793-11.349-3.719-23.004-.02-34.273 3.557-7.341 2.329-14.274 4.53-20.488 4.53s-13.147-2.2-20.488-4.53c-11.27-3.577-22.925-7.276-34.273-3.558-11.821 3.871-19.532 14.456-26.336 23.794-4.406 6.047-8.568 11.759-13.255 15.199-4.779 3.509-11.516 5.774-18.649 8.173-11.361 3.82-23.108 7.77-30.313 17.754-7.118 9.865-7.233 22.276-7.344 34.279-.071 7.654-.138 14.884-2.007 20.687-1.743 5.416-5.785 11.084-10.063 17.085-6.746 9.46-14.392 20.183-14.392 32.906s7.646 23.446 14.392 32.906c4.278 6.001 8.32 11.669 10.063 17.085 1.869 5.803 1.936 13.033 2.007 20.687.111 12.003.226 24.414 7.344 34.279 7.205 9.984 18.953 13.935 30.313 17.754 7.133 2.398 13.869 4.663 18.649 8.172 4.688 3.441 8.849 9.152 13.255 15.2 6.804 9.339 14.516 19.923 26.336 23.794 3.345 1.096 6.717 1.547 10.098 1.547 8.088-.001 16.227-2.583 24.175-5.105 7.34-2.329 14.274-4.53 20.488-4.53s13.148 2.2 20.489 4.53c11.268 3.575 22.921 7.272 34.273 3.558 11.82-3.871 19.532-14.456 26.336-23.794 4.405-6.047 8.567-11.759 13.254-15.2 4.779-3.508 11.516-5.773 18.648-8.172 11.361-3.82 23.11-7.77 30.314-17.754 7.118-9.865 7.233-22.276 7.345-34.279.071-7.654.138-14.884 2.007-20.687 1.743-5.416 5.784-11.084 10.063-17.085 6.746-9.46 14.391-20.183 14.391-32.906s-7.645-23.446-14.391-32.906c-4.279-6.001-8.32-11.668-10.063-17.084z"
    /><path
      d="m159.446 291.841c-3.013 2.907-3.098 7.706-.191 10.719 25.633 26.563 59.991 41.193 96.746 41.193 74.418 0 134.961-61.037 134.961-136.06 0-75.024-60.543-136.061-134.961-136.061s-134.961 61.037-134.961 136.061c0 23.542 6.061 46.744 17.527 67.097 2.055 3.65 6.68 4.939 10.325 2.884 3.648-2.055 4.939-6.678 2.884-10.325-10.19-18.088-15.575-38.717-15.575-59.657 0-66.664 53.742-120.9 119.8-120.9s119.8 54.236 119.8 120.9-53.743 120.898-119.801 120.898c-32.602 0-63.086-12.984-85.836-36.559-2.907-3.012-7.707-3.101-10.718-.19z"
    /><path
      d="m194.184 189.228c-1.455 4.479-.265 9.304 3.108 12.593l21.298 20.76-5.027 29.313c-.798 4.642 1.075 9.246 4.886 12.015 3.81 2.768 8.766 3.128 12.938.936l26.325-13.841 26.325 13.841c2.191 1.294 8.13 2.45 12.938-.936 3.811-2.769 5.684-7.372 4.886-12.014l-5.027-29.314 21.298-20.761c3.373-3.288 4.563-8.113 3.108-12.592-1.456-4.479-5.255-7.683-9.917-8.361l-29.433-4.277-13.163-26.671c-2.085-4.224-6.305-6.847-11.016-6.847-4.71 0-8.931 2.624-11.016 6.847l-13.163 26.671-29.434 4.277c-4.659.677-8.458 3.881-9.914 8.361zm43.029 2.149c4.002-.583 7.459-3.095 9.247-6.72l11.252-22.799 11.251 22.797c1.789 3.626 5.246 6.139 9.251 6.722l25.16 3.656-18.205 17.746c-2.897 2.822-4.219 6.888-3.535 10.874l4.298 25.06-22.503-11.831c-3.581-1.883-7.854-1.882-11.433-.001l-22.504 11.832 4.298-25.06c.684-3.986-.638-8.052-3.533-10.873l-18.207-17.747z"
    /><path
      d="m296.619 164.85c2.452 0 4.858-1.188 6.318-3.383l12.089-18.169c2.32-3.485 1.374-8.191-2.112-10.51-3.485-2.319-8.192-1.374-10.51 2.112l-12.089 18.169c-2.32 3.485-1.374 8.191 2.112 10.51 1.291.859 2.749 1.271 4.192 1.271z"
    /><path
      d="m311.419 227.936c-.952 4.078 1.582 8.154 5.659 9.106l21.252 4.96c.58.135 1.16.2 1.73.2 3.443 0 6.559-2.362 7.375-5.859.952-4.078-1.582-8.154-5.659-9.106l-21.252-4.96c-4.081-.949-8.153 1.583-9.105 5.659z"
    /><path
      d="m219.14 164.85c1.442 0 2.901-.412 4.192-1.27 3.486-2.32 4.432-7.025 2.112-10.51l-12.088-18.17c-2.319-3.486-7.024-4.431-10.51-2.112-3.486 2.32-4.432 7.025-2.112 10.51l12.089 18.169c1.458 2.196 3.865 3.383 6.317 3.383z"
    /><path
      d="m168.323 236.343c.816 3.497 3.932 5.859 7.375 5.859.571 0 1.151-.065 1.73-.2l21.252-4.96c4.077-.952 6.61-5.028 5.659-9.106-.952-4.076-5.028-6.607-9.106-5.659l-21.252 4.96c-4.075.951-6.609 5.028-5.658 9.106z"
    /><path
      d="m250.131 274.422v19.647c0 4.187 3.394 7.581 7.581 7.581s7.581-3.394 7.581-7.581v-19.647c0-4.187-3.394-7.581-7.581-7.581-4.188 0-7.581 3.394-7.581 7.581z"
    /></g></svg>
