<svg
  id="Capa_1"
  fill="#171717"
  height="512"
  viewBox="0 0 512 512"
  width="512"
  xmlns="http://www.w3.org/2000/svg"
><g><g><path
        d="m66.12 417.795c4.835 4.836 11.28 7.498 18.148 7.498s13.313-2.662 18.147-7.498l73.49-73.492c7.805-7.806 7.805-20.995 0-28.801l-.001-.002-73.489-73.463c-10.007-10.006-26.288-10.007-36.296.001-9.994 9.994-9.999 26.285-.016 36.309l51.248 51.556-51.241 51.579c-9.988 10.029-9.984 26.319.01 36.313zm10.625-25.734 52.062-52.404c6.512-6.562 6.512-12.943-.004-19.512l-52.064-52.378c-4.164-4.181-4.168-10.965-.011-15.122 2.079-2.079 4.81-3.118 7.541-3.118s5.463 1.039 7.542 3.119l73.488 73.462c2.021 2.021 2.021 5.568 0 7.59l-73.49 73.492c-2.001 2.002-4.68 3.104-7.541 3.104s-5.54-1.102-7.541-3.104c-4.157-4.159-4.153-10.943.018-15.129z"
      /><path
        d="m194.035 425.293c6.868 0 13.313-2.662 18.147-7.498l73.49-73.491c7.806-7.807 7.806-20.996 0-28.803l-73.489-73.464c-10.007-10.006-26.289-10.008-36.295.001-9.974 9.975-9.983 26.26-.016 36.309l51.247 51.556-51.252 51.59c-9.962 10.043-9.953 26.329.021 36.303 4.834 4.835 11.279 7.497 18.147 7.497zm-7.524-33.232 52.062-52.404c6.512-6.562 6.512-12.943-.004-19.512l-52.053-52.367c-4.161-4.194-4.171-10.983-.021-15.133 2.079-2.079 4.81-3.118 7.541-3.118s5.463 1.039 7.542 3.119l73.489 73.463c2.021 2.021 2.021 5.567 0 7.589l-73.49 73.492c-2.001 2.002-4.68 3.104-7.541 3.104s-5.539-1.102-7.541-3.104c-4.15-4.151-4.141-10.939.016-15.129z"
      /><path
        d="m512 131.499c0-53.32-43.39-96.69-96.72-96.69-37.23 0-69.62 21.16-85.76 52.09h-37.933v-15.609c0-14.591-11.871-26.462-26.461-26.462h-.028c-14.591 0-26.461 11.871-26.461 26.462v15.609h-44.922v-15.609c0-14.591-11.871-26.462-26.461-26.462-14.606 0-26.49 11.871-26.49 26.462v15.609h-44.894v-15.609c0-14.591-11.883-26.462-26.49-26.462-14.591 0-26.461 11.871-26.461 26.462v15.609h-27.159c-8.69 0-15.76 7.07-15.76 15.76v79.2c0 5.977 3.345 11.187 8.26 13.858v250.611c0 17.018 13.857 30.862 30.89 30.862h354.079c17.017 0 30.861-13.845 30.861-30.862v-93.419c0-4.143-3.358-7.5-7.5-7.5s-7.5 3.357-7.5 7.5v93.419c0 8.746-7.115 15.862-15.861 15.862h-354.079c-8.762 0-15.89-7.116-15.89-15.862v-248.709h176.15c4.15 0 7.5-3.36 7.5-7.5 0-4.15-3.35-7.5-7.5-7.5h-183.572c-.026 0-.051-.004-.077-.004-.005 0-.01.001-.015.001-.394-.009-.746-.372-.746-.757v-14.82h310.37c2.16 5.45 4.81 10.66 7.88 15.58h-99.15c-4.14 0-7.5 3.35-7.5 7.5 0 4.14 3.36 7.5 7.5 7.5h110.71c16.318 17.401 38.998 28.76 64.28 30.366v90.237c0 4.143 3.358 7.5 7.5 7.5s7.5-3.357 7.5-7.5v-90.438c49.217-4.465 87.91-45.944 87.91-96.285zm-246.902-71.671h.028c6.32 0 11.461 5.142 11.461 11.462v40.479c0 6.32-5.142 11.462-11.49 11.462-6.32 0-11.461-5.142-11.461-11.462v-40.479c0-6.32 5.142-11.462 11.462-11.462zm-109.335 11.462c0-6.32 5.154-11.462 11.49-11.462 6.32 0 11.461 5.142 11.461 11.462v40.479c0 6.32-5.142 11.462-11.461 11.462-6.335 0-11.49-5.142-11.49-11.462zm-86.383-11.462c6.335 0 11.49 5.142 11.49 11.462v40.479c0 6.32-5.154 11.462-11.49 11.462-6.32 0-11.461-5.142-11.461-11.462v-40.479c0-6.32 5.142-11.462 11.461-11.462zm-54.38 42.831c0-.4.36-.76.76-.76h27.159v9.87c0 14.591 11.871 26.462 26.461 26.462 14.606 0 26.49-11.871 26.49-26.462v-9.87h44.893v9.87c0 14.591 11.883 26.462 26.49 26.462 14.591 0 26.461-11.871 26.461-26.462v-9.87h44.922v9.87c0 14.591 11.871 26.462 26.49 26.462 14.591 0 26.461-11.871 26.461-26.462v-9.87h31.653c-3.02 9.33-4.64 19.28-4.64 29.6 0 7.031.757 13.883 2.189 20.486h-305.789zm400.28 110.53c-17.88 0-34.44-5.78-47.91-15.57-5.89-4.28-11.2-9.33-15.75-15-3.85-4.78-7.17-10-9.88-15.58-2.31-4.76-4.17-9.78-5.52-15-1.71-6.57-2.62-13.45-2.62-20.54 0-10.43 1.97-20.42 5.54-29.6 2.07-5.29 4.67-10.31 7.74-15 14.59-22.32 39.8-37.09 68.4-37.09 45.06 0 81.72 36.64 81.72 81.69 0 45.04-36.66 81.69-81.72 81.69z"
      /><path
        d="m416.165 128.198h-13.902v-13.903c0-4.143-3.358-7.5-7.5-7.5s-7.5 3.357-7.5 7.5v13.903h-14.385c-4.142 0-7.5 3.357-7.5 7.5s3.358 7.5 7.5 7.5h14.385v14.386c0 4.143 3.358 7.5 7.5 7.5s7.5-3.357 7.5-7.5v-14.386h13.902c4.142 0 7.5-3.357 7.5-7.5s-3.358-7.5-7.5-7.5z"
      /><path
        d="m444.72 93.312h-13.171c-4.142 0-7.5 3.357-7.5 7.5s3.358 7.5 7.5 7.5h5.671v54.042c0 4.143 3.358 7.5 7.5 7.5s7.5-3.357 7.5-7.5v-61.542c0-4.143-3.358-7.5-7.5-7.5z"
      /><path
        d="m312.353 262.103v135.601c0 14.168 11.527 25.695 25.695 25.695 14.153 0 25.667-11.527 25.667-25.695v-135.601c0-14.153-11.514-25.668-25.667-25.668-14.168 0-25.695 11.514-25.695 25.668zm36.362 0v135.601c0 5.897-4.785 10.695-10.667 10.695-5.897 0-10.695-4.798-10.695-10.695v-135.601c0-5.883 4.798-10.668 10.695-10.668 5.882 0 10.667 4.785 10.667 10.668z"
      /></g></g></svg>
